<svg xmlns="http://www.w3.org/2000/svg" viewBox="0 0 53.58 44.02"><g id="Calque_2" data-name="Calque 2"><g id="Calque_1-2" data-name="Calque 1"><path d="M52.42,8H11L9,1.72a1,1,0,0,0-.8-.7l-7-1A1,1,0,0,0,0,.92.94.94,0,0,0,.92,2l6.4.9,3.1,9.8,6.8,20.6a1,1,0,0,0,1,.7h26.1a1,1,0,0,0,.9-.7l8.3-24a1,1,0,0,0-.1-.9A2.6,2.6,0,0,0,52.42,8Zm-9,24H18.72l-6.5-19.9-.6-2.1H51Z"/><path d="M28,40a4,4,0,1,0-4,4A4,4,0,0,0,28,40Zm-6,0a2,2,0,1,1,2,2A2,2,0,0,1,22,40Z"/><path d="M44,40a4,4,0,1,0-4,4A4,4,0,0,0,44,40Zm-6,0a2,2,0,1,1,2,2A2,2,0,0,1,38,40Z"/></g></g></svg>